<svg width="16" height="16" viewBox="0 0 16 16" fill="none" xmlns="http://www.w3.org/2000/svg">
<g clip-path="url(#clip0_1016_251)">
<path d="M15.04 8.16663C15.04 7.64663 14.9933 7.14663 14.9067 6.66663H8V9.50663H11.9467C11.7733 10.42 11.2533 11.1933 10.4733 11.7133V13.56H12.8533C14.24 12.28 15.04 10.4 15.04 8.16663Z" fill="#4285F4"/>
<path d="M8.00004 15.3334C9.98003 15.3334 11.64 14.68 12.8534 13.56L10.4734 11.7134C9.82003 12.1534 8.9867 12.42 8.00004 12.42C6.09337 12.42 4.47337 11.1334 3.89337 9.40002H1.45337V11.2934C2.66004 13.6867 5.13337 15.3334 8.00004 15.3334Z" fill="#34A853"/>
<path d="M3.89341 9.39338C3.74675 8.95338 3.66008 8.48671 3.66008 8.00005C3.66008 7.51338 3.74675 7.04671 3.89341 6.60671V4.71338H1.45341C0.953415 5.70005 0.666748 6.81338 0.666748 8.00005C0.666748 9.18671 0.953415 10.3 1.45341 11.2867L3.35341 9.80671L3.89341 9.39338Z" fill="#FBBC05"/>
<path d="M8.00004 3.58675C9.08004 3.58675 10.04 3.96008 10.8067 4.68008L12.9067 2.58008C11.6334 1.39341 9.98003 0.666748 8.00004 0.666748C5.13337 0.666748 2.66004 2.31341 1.45337 4.71342L3.89337 6.60675C4.47337 4.87341 6.09337 3.58675 8.00004 3.58675Z" fill="#EA4335"/>
</g>
<defs>
<clipPath id="clip0_1016_251">
<rect width="16" height="16" fill="white"/>
</clipPath>
</defs>
</svg>
